# xmcd
# 
# Track frame offsets:
#     150
#     11512
#     18235
#     29440
#     44257
#     49500
#     56767
#     69005
#     75202
#     85605
#     98805
#     109965
#     113572
#     121095
#     129895
#     139922
#     150577
#     158685
#     165555
#     175815
#     185790
#     197390
#     207927
#     213035
#     248935
# 
# Disc length: 4249
# 
# Revision: 16
# Processed by: cddbd v1.5.2PL0 Copyright (c) Steve Scherf et al.
# Submitted via: fre:ac v1.0.17
# 
DISCID=32109719
DTITLE=Various Artist - Frida
DYEAR=2002
DGENRE=Soundtrack
TTITLE0=Lila downs - Benediction and dream
TTITLE1=Elliot Goldenthal - The floating bed
TTITLE2=Los cojolites - El conejo
TTITLE3=Chavela Vargas - Paloma negra
TTITLE4=Elliot Goldenthal - Self-portrait with hair down
TTITLE5=Lila downs - Alcoba azul
TTITLE6=El poder del norte - 30
TTITLE7=Elliot Goldenthal - Solo tu
TTITLE8=Trio Huasteco caimanes de tamuin - El gusto
TTITLE9=Elliot Goldenthal - The journey
TTITLE10=Liberación, Miguel Galindo, Alejandro Marehuala, Gerardo Garcia - El antifaz
TTITLE11=Elliot Goldenthal - The suicide of Dorothy Hale
TTITLE12=Elliot Goldenthal - La calavera
TTITLE13=Salma Hayek and Los Vega - La bruja
TTITLE14=Elliot Goldenthal - Portrait of Lupe
TTITLE15=Chavela Vargas - La llorona
TTITLE16=Lila downs - Estrella oscura
TTITLE17=Elliot Goldenthal - Still life
TTITLE18=Trio, Marimberos - Viva la vida
TTITLE19=Elliot Goldenthal - The departure
TTITLE20=Elliot Goldenthal - Coyoacán and variations
TTITLE21=Lila downs and Mariachi Juvenil de Tecalitlán - La llorona
TTITLE22=Elliot Goldenthal - Burning bed
TTITLE23=Caetano Veloso and Lila downs - Burn it blue
TTITLE24=Elliot Goldenthal - Data track
EXTD=
EXTT0=
EXTT1=
EXTT2=
EXTT3=
EXTT4=
EXTT5=
EXTT6=
EXTT7=
EXTT8=
EXTT9=
EXTT10=
EXTT11=
EXTT12=
EXTT13=
EXTT14=
EXTT15=
EXTT16=
EXTT17=
EXTT18=
EXTT19=
EXTT20=
EXTT21=
EXTT22=
EXTT23=
EXTT24=
PLAYORDER=
